Coordinates
version=1
nRows=43
nColumns=12
inDegrees=yes

Units are S.I. units (second, meters, Newtons, ...)
Angles are in degrees

endheader
time	SC_y	SC_z	SC_x	AC_y	AC_z	AC_x	GH_y	GH_z	GH_yy	EL_x	PS_y
       0.0              -36.61          14.63          17.64          65.18          8.718          13.17         -22.09          47.22          149.7          6.398          85.54
   0.02299              -36.61          14.63          17.64          65.18          8.718          13.17         -22.07          47.22          149.7          6.402          85.54
   0.04599              -36.61          14.63          17.65          65.17          8.718          13.16         -22.04          47.22          149.7          6.407          85.54
   0.06898               -36.6          14.63          17.66          65.17          8.717          13.16          -22.0          47.22          149.7          6.413          85.54
   0.09197               -36.6          14.63          17.67          65.17          8.717          13.16         -21.97          47.22          149.7          6.418          85.54
     0.115               -36.6          14.63          17.68          65.16          8.717          13.15         -21.93          47.22          149.6          6.424          85.53
     0.138              -36.59          14.63          17.69          65.16          8.716          13.15         -21.89          47.22          149.6          6.431          85.53
    0.1609              -36.59          14.63          17.71          65.16          8.716          13.15         -21.85          47.22          149.6          6.438          85.53
    0.1839              -36.58          14.63          17.72          65.15          8.715          13.14         -21.81          47.21          149.5          6.445          85.53
    0.2069              -36.58          14.64          17.73          65.15          8.715          13.14         -21.76          47.21          149.5          6.453          85.52
    0.2299              -36.57          14.64          17.75          65.15          8.714          13.13         -21.71          47.21          149.5          6.462          85.52
    0.2529              -36.57          14.64          17.76          65.14          8.714          13.13         -21.65          47.21          149.4          6.471          85.52
    0.2759              -36.56          14.64          17.78          65.14          8.713          13.12         -21.59          47.21          149.4          6.481          85.52
    0.2989              -36.56          14.64           17.8          65.13          8.712          13.12         -21.53          47.21          149.4          6.492          85.51
    0.3219              -36.55          14.64          17.82          65.13          8.712          13.11         -21.46          47.21          149.3          6.503          85.51
    0.3449              -36.54          14.64          17.84          65.12          8.711           13.1         -21.39          47.21          149.3          6.516           85.5
    0.3679              -36.53          14.64          17.86          65.11           8.71           13.1          -21.3           47.2          149.2           6.53           85.5
    0.3909              -36.52          14.64          17.89          65.11          8.709          13.09         -21.21           47.2          149.2          6.544          85.49
    0.4139              -36.51          14.64          17.92           65.1          8.708          13.08         -21.12           47.2          149.1          6.561          85.49
    0.4369               -36.5          14.64          17.95          65.09          8.707          13.07         -21.01           47.2          149.0          6.578          85.48
    0.4599              -36.49          14.64          17.98          65.08          8.706          13.06         -20.89          47.19          148.9          6.598          85.48
    0.4828              -36.48          14.64          18.02          65.07          8.704          13.05         -20.76          47.19          148.9           6.62          85.47
    0.5058              -36.46          14.64          18.06          65.06          8.703          13.03         -20.62          47.19          148.8          6.643          85.46
    0.5288              -36.45          14.64          18.11          65.04          8.701          13.02         -20.46          47.18          148.7           6.67          85.45
    0.5518              -36.43          14.64          18.16          65.03            8.7           13.0         -20.29          47.18          148.6          6.699          85.44
    0.5748              -36.41          14.64          18.21          65.01          8.698          12.98         -20.09          47.18          148.4          6.732          85.43
    0.5978              -36.39          14.65          18.28          64.99          8.695          12.96         -19.87          47.17          148.3          6.768          85.42
    0.6208              -36.36          14.65          18.35          64.97          8.693          12.94         -19.63          47.16          148.1          6.809           85.4
    0.6438              -36.33          14.65          18.43          64.95           8.69          12.92         -19.35          47.16          147.9          6.856          85.39
    0.6668               -36.3          14.65          18.52          64.92          8.687          12.89         -19.03          47.15          147.7          6.909          85.37
    0.6898              -36.26          14.65          18.63           64.9          8.683          12.85         -18.67          47.14          147.5          6.969          85.35
    0.7128              -36.22          14.65          18.75          64.86          8.679          12.81         -18.25          47.13          147.2          7.038          85.33
    0.7358              -36.17          14.66          18.88          64.82          8.674          12.77         -17.78          47.12          146.9          7.118           85.3
    0.7588              -36.11          14.66          19.05          64.78          8.668          12.72         -17.22          47.11          146.5          7.211          85.27
    0.7818              -36.05          14.66          19.23          64.72          8.661          12.66         -16.57          47.09          146.1          7.319          85.23
    0.8047              -35.97          14.67          19.46          64.66          8.653          12.59          -15.8          47.08          145.6          7.447          85.19
    0.8277              -35.87          14.67          19.72          64.58          8.644           12.5         -14.89          47.06          145.0          7.599          85.14
    0.8507              -35.76          14.68          20.04          64.49          8.633           12.4          -13.8          47.03          144.3          7.781          85.07
    0.8737              -35.62          14.68          20.42          64.38          8.619          12.28         -12.47           47.0          143.5          8.002           85.0
    0.8967              -35.46          14.69          20.89          64.25          8.603          12.13         -10.86          46.96          142.4          8.271          84.91
    0.9197              -35.25           14.7          21.46          64.08          8.582          11.95         -8.863          46.92          141.1          8.604           84.8
    0.9427               -35.0          14.72          22.18          63.88          8.557          11.72         -6.377          46.86          139.5          9.019          84.66
    0.9657              -34.67          14.73          23.09          63.62          8.524          11.43         -3.245          46.79          137.4          9.541          84.48
